HIERARCHY
ROOT Hips
{
	OFFSET 0.000000 0.000000 0.000000
	CHANNELS 6 Xposition Yposition Zposition Zrotation Yrotation Xrotation 
	JOINT LHipJoint
	{
		OFFSET 0.000000 0.000000 0.000000
		CHANNELS 3 Zrotation Yrotation Xrotation
		JOINT LeftUpLeg
		{
			OFFSET 1.363060 -1.794630 0.839290
			CHANNELS 3 Zrotation Yrotation Xrotation
			JOINT LeftLeg
			{
				OFFSET 2.448110 -6.726130 0.000000
				CHANNELS 3 Zrotation Yrotation Xrotation
				JOINT LeftFoot
				{
					OFFSET 2.562200 -7.039590 0.000000
					CHANNELS 3 Zrotation Yrotation Xrotation
					JOINT LeftToeBase
					{
						OFFSET 0.157640 -0.433110 2.322550
						CHANNELS 3 Zrotation Yrotation Xrotation
						End Site
						{
							OFFSET 0.000000 0.000000 0.000000
						}
					}
				}
			}
		}
	}
	JOINT RHipJoint
	{
		OFFSET 0.000000 0.000000 0.000000
		CHANNELS 3 Zrotation Yrotation Xrotation
		JOINT RightUpLeg
		{
			OFFSET -1.305520 -1.794630 0.839290
			CHANNELS 3 Zrotation Yrotation Xrotation
			JOINT RightLeg
			{
				OFFSET -2.542530 -6.985550 0.000000
				CHANNELS 3 Zrotation Yrotation Xrotation
				JOINT RightFoot
				{
					OFFSET -2.568260 -7.056230 0.000000
					CHANNELS 3 Zrotation Yrotation Xrotation
					JOINT RightToeBase
					{
						OFFSET -0.164730 -0.452590 2.363150
						CHANNELS 3 Zrotation Yrotation Xrotation
						End Site
						{
							OFFSET 0.000000 0.000000 0.000000
						}
					}
				}
			}
		}
	}
	JOINT LowerBack
	{
		OFFSET 0.000000 0.000000 0.000000
		CHANNELS 3 Zrotation Yrotation Xrotation
		JOINT Spine
		{
			OFFSET 0.028270 2.035590 -0.193380
			CHANNELS 3 Zrotation Yrotation Xrotation
			JOINT Spine1
			{
				OFFSET 0.056720 2.048850 -0.042750
				CHANNELS 3 Zrotation Yrotation Xrotation
				JOINT Neck
				{
					OFFSET 0.000000 0.000000 0.000000
					CHANNELS 3 Zrotation Yrotation Xrotation
					JOINT Neck1
					{
						OFFSET -0.054170 1.746240 0.172020
						CHANNELS 3 Zrotation Yrotation Xrotation
						JOINT Head
						{
							OFFSET 0.104070 1.761360 -0.123970
							CHANNELS 3 Zrotation Yrotation Xrotation
							End Site
							{
								OFFSET 0.000000 0.000000 0.000000
							}
						}
					}
				}
				JOINT LeftShoulder
				{
					OFFSET 0.000000 0.000000 0.000000
					CHANNELS 3 Zrotation Yrotation Xrotation
					JOINT LeftArm
					{
						OFFSET 3.362410 1.200890 -0.311210
						CHANNELS 3 Zrotation Yrotation Xrotation
						JOINT LeftForeArm
						{
							OFFSET 4.983000 -0.000000 -0.000000
							CHANNELS 3 Zrotation Yrotation Xrotation
							JOINT LeftHand
							{
								OFFSET 3.483560 -0.000000 -0.000000
								CHANNELS 3 Zrotation Yrotation Xrotation
								JOINT LeftFingerBase
								{
									OFFSET 0.000000 0.000000 0.000000
									CHANNELS 3 Zrotation Yrotation Xrotation
									JOINT LeftHandIndex1
									{
										OFFSET 0.715260 -0.000000 -0.000000
										CHANNELS 3 Zrotation Yrotation Xrotation
										End Site
										{
											OFFSET 0.000000 0.000000 0.000000
										}
									}
								}
								JOINT LThumb
								{
									OFFSET 0.000000 0.000000 0.000000
									CHANNELS 3 Zrotation Yrotation Xrotation
									End Site
									{
										OFFSET 0.000000 0.000000 0.000000
									}
								}
							}
						}
					}
				}
				JOINT RightShoulder
				{
					OFFSET 0.000000 0.000000 0.000000
					CHANNELS 3 Zrotation Yrotation Xrotation
					JOINT RightArm
					{
						OFFSET -3.136600 1.374050 -0.404650
						CHANNELS 3 Zrotation Yrotation Xrotation
						JOINT RightForeArm
						{
							OFFSET -5.241900 -0.000000 -0.000000
							CHANNELS 3 Zrotation Yrotation Xrotation
							JOINT RightHand
							{
								OFFSET -3.444170 -0.000000 -0.000000
								CHANNELS 3 Zrotation Yrotation Xrotation
								JOINT RightFingerBase
								{
									OFFSET 0.000000 0.000000 0.000000
									CHANNELS 3 Zrotation Yrotation Xrotation
									JOINT RightHandIndex1
									{
										OFFSET -0.622530 -0.000000 -0.000000
										CHANNELS 3 Zrotation Yrotation Xrotation
										End Site
										{
											OFFSET 0.000000 0.000000 0.000000
										}
									}
								}
								JOINT RThumb
								{
									OFFSET 0.000000 0.000000 0.000000
									CHANNELS 3 Zrotation Yrotation Xrotation
									End Site
									{
										OFFSET 0.000000 0.000000 0.000000
									}
								}
							}
						}
					}
				}
			}
		}
	}
}
MOTION
Frames: 8
Frame Time: 0.008333
6.357315 16.451428 0.866526 22.239435 79.849892 29.303917 -8.854127 0.106310 2.937030 -15.858964 -3.823547 -40.118774 -1.606137 1.027820 32.859934 1.545995 8.509922 -4.434646 0.759500 0.000000 -15.172500 11.918927 -4.903579 -1.201686 -3.105270 -12.381116 4.529917 -0.100054 -3.306336 39.101280 -0.502099 12.163323 27.388788 7.179300 0.000000 -84.834700 -9.645714 3.124314 -3.534722 -2.343587 3.677111 -4.119210 -3.279094 3.525907 -1.277474 2.580611 -1.938197 -8.687113 -0.942012 -0.060526 -0.267299 0.000000 0.000000 0.000000 -5.273655 19.836899 2.822691 -48.716018 36.580518 23.486084 -5.530448 -18.773900 -0.080718 -10.654680 19.078700 -1.784042 -0.167444 -0.137460 -0.000000 0.000000 0.000000 0.000000 0.000000 0.000000 0.000000 -3.049935 5.883081 -0.500281 31.975972 48.287268 16.872943 0.299340 79.496776 -0.024029 -1.715915 5.526481 -0.086645 -0.082721 -0.522693 0.000000 0.000000 0.000000 0.000000 0.000000 0.000000 0.000000 
6.565109 16.382421 0.885110 24.245428 79.672554 30.928944 -8.745219 0.138918 2.648874 -16.740230 -3.408388 -40.284588 -1.520000 1.211907 35.710146 1.622837 8.718079 -5.726558 0.523901 0.000000 -14.037000 12.249800 -4.732534 -1.384973 -4.449926 -13.158555 3.063527 -0.325288 -3.475675 43.057341 -0.793948 10.173425 28.347514 6.338701 -0.000000 -81.888400 -9.982523 2.991695 -3.043067 -2.424072 3.559831 -4.067082 -3.413841 3.419981 -1.422927 2.821096 -1.595381 -8.667338 -1.073870 -0.070649 -0.274122 0.000000 0.000000 0.000000 -6.155960 19.540374 2.844850 -48.299232 35.708922 25.082686 -5.480324 -18.873333 -0.079594 -10.946364 18.942521 -1.819728 -0.167539 -0.129531 -0.000000 0.000000 0.000000 0.000000 0.000000 0.000000 0.000000 -2.390285 6.356825 -0.361282 33.032367 47.853853 16.999060 0.320990 79.382044 -0.021858 -1.418215 5.752173 -0.073389 -0.084549 -0.528318 0.000000 0.000000 0.000000 0.000000 0.000000 0.000000 0.000000 
6.766341 16.311978 0.902725 26.148501 79.424375 32.419888 -8.626063 0.184616 2.332357 -17.657386 -2.885184 -40.295951 -1.461511 1.376619 38.356854 1.699546 8.882756 -7.242631 0.235100 0.000000 -13.063100 12.571764 -4.518968 -1.582894 -5.779455 -13.846181 1.569081 -0.549016 -3.665385 47.080810 -1.109539 7.257209 28.684716 4.845400 -0.000000 -78.494100 -10.297939 2.857439 -2.494447 -2.499240 3.439329 -4.005027 -3.557269 3.312445 -1.575546 3.054846 -1.185048 -8.636705 -1.222461 -0.082119 -0.280263 0.000000 0.000000 0.000000 -7.081246 19.274554 2.889645 -47.974052 34.549784 26.544636 -5.417962 -18.844609 -0.076947 -10.969556 18.606052 -1.789890 -0.167638 -0.119677 -0.000000 0.000000 0.000000 0.000000 0.000000 0.000000 0.000000 -1.696472 6.916745 -0.233953 34.300404 47.364439 17.103477 0.340694 79.169307 -0.019832 -1.127838 6.061425 -0.060223 -0.086314 -0.535184 0.000000 0.000000 0.000000 0.000000 0.000000 0.000000 0.000000 
6.961429 16.241737 0.919500 27.963896 79.124815 33.796294 -8.496740 0.245802 1.998748 -18.590200 -2.300685 -40.127818 -1.429875 1.522087 40.755408 1.775640 9.003082 -8.927985 -0.096800 0.000000 -12.293000 12.884714 -4.268701 -1.793133 -7.081219 -14.441327 0.058726 -0.775406 -3.882374 51.115289 -1.446698 3.577903 28.296280 2.842400 0.000000 -74.602001 -10.596152 2.721115 -1.900394 -2.570330 3.315863 -3.933553 -3.708927 3.203325 -1.727815 3.289672 -0.729354 -8.593016 -1.388799 -0.095020 -0.285234 0.000000 0.000000 0.000000 -7.991920 19.029582 2.960298 -47.798451 33.066436 27.775903 -5.349797 -18.603433 -0.072726 -10.688863 18.062971 -1.690430 -0.167467 -0.107943 -0.000000 0.000000 0.000000 0.000000 0.000000 0.000000 0.000000 -0.948208 7.536341 -0.120073 35.762611 46.814933 17.187242 0.358279 78.835395 -0.018210 -0.884024 6.447514 -0.048743 -0.087264 -0.543011 0.000000 0.000000 0.000000 0.000000 0.000000 0.000000 0.000000 
7.151038 16.173567 0.935384 29.693973 78.792565 35.067454 -8.359467 0.322973 1.659080 -19.515750 -1.697838 -39.766575 -1.422604 1.648995 42.873590 1.850820 9.080546 -10.717533 -0.457800 -0.000000 -11.759100 13.186661 -3.989935 -2.012108 -8.338759 -14.942555 -1.457951 -1.008746 -4.130121 55.094756 -1.798811 -0.581561 27.124235 0.589601 0.000000 -70.155200 -10.874166 2.585275 -1.273970 -2.637027 3.192141 -3.855519 -3.867764 3.094826 -1.880170 3.526481 -0.241114 -8.527398 -1.572723 -0.109454 -0.286457 0.000000 0.000000 0.000000 -8.853552 18.773513 3.055063 -47.800396 31.271573 28.702060 -5.281774 -18.107422 -0.066989 -10.082743 17.310664 -1.524445 -0.166541 -0.094645 -0.000000 0.000000 0.000000 0.000000 0.000000 0.000000 0.000000 -0.140246 8.198442 -0.019948 37.413950 46.173040 17.246435 0.374166 78.367916 -0.017162 -0.714965 6.901244 -0.040949 -0.086805 -0.551392 0.000000 0.000000 0.000000 0.000000 0.000000 0.000000 0.000000 
7.335981 16.109327 0.950183 31.341398 78.444302 36.246397 -8.216644 0.415043 1.324164 -20.414342 -1.116062 -39.213060 -1.436046 1.758435 44.692430 1.925336 9.122512 -12.541336 -0.831900 -0.000001 -11.474400 13.475593 -3.692391 -2.234540 -9.537146 -15.351450 -2.979146 -1.252673 -4.407739 58.950912 -2.153604 -4.864851 25.180536 -1.591800 -0.000000 -65.135600 -11.128017 2.453721 -0.630970 -2.699031 3.071948 -3.773990 -4.032674 2.990102 -2.031486 3.765948 0.262522 -8.433743 -1.773434 -0.125423 -0.282031 0.000000 0.000000 0.000000 -9.634008 18.483216 3.170492 -47.994693 29.176749 29.280202 -5.216824 -17.332115 -0.059850 -9.137636 16.350850 -1.300542 -0.164086 -0.080251 -0.000000 0.000000 0.000000 0.000000 0.000000 0.000000 0.000000 0.731679 8.879819 0.065523 39.238607 45.407494 17.272283 0.388915 77.756950 -0.016874 -0.649139 7.413743 -0.039242 -0.084428 -0.559898 0.000000 0.000000 0.000000 0.000000 0.000000 0.000000 0.000000 
7.517261 16.050781 0.963690 32.904027 78.094517 37.344167 -8.070921 0.519568 1.003963 -21.270012 -0.588972 -38.480895 -1.465738 1.851765 46.205438 1.999821 9.141871 -14.331255 -1.203700 0.000000 -11.424500 13.748918 -3.385847 -2.453405 -10.660251 -15.670301 -4.510102 -1.508550 -4.709184 62.617079 -2.494060 -8.916176 22.556625 -3.403400 0.000000 -59.592300 -11.352109 2.331356 0.010503 -2.756012 2.959967 -3.692706 -4.203363 2.893040 -2.181594 4.009241 0.759765 -8.307247 -1.989734 -0.142880 -0.270261 0.000000 0.000000 0.000000 -10.312106 18.131984 3.299598 -48.380006 26.814536 29.464342 -5.155588 -16.282673 -0.051516 -7.841545 15.192681 -1.032326 -0.159120 -0.065367 -0.000000 0.000000 0.000000 0.000000 0.000000 0.000000 0.000000 1.673603 9.550684 0.137635 41.204835 44.492494 17.252995 0.403212 76.993749 -0.017541 -0.715574 7.976946 -0.047324 -0.079689 -0.568087 0.000000 0.000000 0.000000 0.000000 0.000000 0.000000 0.000000 
7.695815 15.999477 0.975570 34.361640 77.757084 38.355447 -7.927306 0.632303 0.706036 -22.065294 -0.139236 -37.597258 -1.506657 1.930858 47.421524 2.074755 9.153752 -16.029199 -1.560399 0.000000 -11.562100 14.001146 -3.078942 -2.661466 -11.683677 -15.900413 -6.059560 -1.773764 -5.023638 66.034048 -2.800764 -12.448526 19.407526 -4.641999 0.000000 -53.658201 -11.534315 2.223293 0.633670 -2.805775 2.860834 -3.614065 -4.376974 2.807485 -2.327069 4.248446 1.238206 -8.148943 -2.216890 -0.161389 -0.250950 0.000000 0.000000 0.000000 -10.871988 17.731664 3.436366 -48.941325 24.175223 29.287924 -5.093128 -14.974046 -0.042272 -6.197079 13.837385 -0.738298 -0.150474 -0.050684 -0.000000 0.000000 0.000000 0.000000 0.000000 0.000000 0.000000 2.660175 10.187840 0.188779 43.309648 43.388838 17.158160 0.417218 76.074402 -0.019165 -0.912821 8.583810 -0.067001 -0.072950 -0.575404 -0.000000 0.000000 0.000000 0.000000 0.000000 0.000000 0.000000 
